# xmcd CD database file
#
# Track frame offsets:
#	150
#	33082
#	76649
#	104463
#	114163
#	133140
#	163245
#	181764
#	197189
#	201529
#	237901
#
# Disc length: 3466 seconds
#
# Revision: 0
# Processed by: cddbd v1.5.2PL0 Copyright (c) Steve Scherf et al.
# Submitted via: CDex 1.51
#
DISCID=8e0d880b
DTITLE=tj dovebelly ensemble - tj dovebelly ensemble
DYEAR=2002
DGENRE=Jazz
TTITLE0=MCDUFF
TTITLE1=LITTLE PRINCE
TTITLE2=HORN FACE
TTITLE3=WEENIE DOG
TTITLE4=TUESDAY FAUST
TTITLE5=KRUSTY'S THEME
TTITLE6=LDB
TTITLE7=NITE LITE
TTITLE8=TRAFFIC JAM
TTITLE9=TURNSTYLE
TTITLE10=WONDERLUST
EXTD=YEAR: 2002
EXTT0=
EXTT1=
EXTT2=
EXTT3=
EXTT4=
EXTT5=
EXTT6=
EXTT7=
EXTT8=
EXTT9=
EXTT10=
PLAYORDER=
